<?xml version="1.0" encoding="utf-8"?>
<!-- Generator: Adobe Illustrator 26.3.1, SVG Export Plug-In . SVG Version: 6.00 Build 0)  -->
<svg version="1.1" id="Layer_1" xmlns="http://www.w3.org/2000/svg" xmlns:xlink="http://www.w3.org/1999/xlink" x="0px" y="0px"
	 viewBox="0 0 1920 1080" style="enable-background:new 0 0 1920 1080;" xml:space="preserve">
<style type="text/css">
	.st0{fill:none;stroke:#000000;stroke-width:4;stroke-miterlimit:10;}
</style>
<path class="st0" d="M968.47,481.51c0,0,21.92,17.72,10.87,53.79c0,0-4.82,14.38,10.3,15.83c15.11,1.45,30.93-14.14,31.67-34.81
	C1022.05,495.65,1002.89,468.3,968.47,481.51z"/>
<path class="st0" d="M950.6,598.8c0,0-21.92-17.72-10.87-53.79c0,0,4.82-14.38-10.3-15.83c-15.11-1.45-30.93,14.14-31.67,34.81
	C897.02,584.66,916.18,612.01,950.6,598.8z"/>
<path class="st0" d="M1017.86,549.41c0,0-17.72,21.92-53.79,10.87c0,0-14.38-4.82-15.83,10.3c-1.45,15.11,14.14,30.93,34.81,31.67
	S1031.07,583.83,1017.86,549.41z"/>
<path class="st0" d="M901.21,530.9c0,0,17.72-21.92,53.79-10.87c0,0,14.38,4.82,15.83-10.3c1.45-15.11-14.14-30.93-34.81-31.67
	C915.35,477.32,888,496.48,901.21,530.9z"/>
</svg>
